# Blender v2.81 (sub 16) OBJ File: 'bruh_project_lopoly_floating_ground.blend'
# www.blender.org
mtllib Platform_03.mtl
o rock_mesh_04_Icosphere.003
v -0.101283 2.037926 0.112564
v 0.373326 1.930254 -0.025155
v 0.862128 1.656904 -0.684966
v -0.295115 1.996710 -0.354860
v -0.291371 2.077679 -1.129544
v -0.987550 1.767494 -0.140512
v 0.031344 2.011722 0.884075
v 0.862719 2.044805 0.297312
v 0.174006 1.855425 -1.192135
v -0.047075 1.635292 -1.095662
v -0.922540 1.858955 -0.568291
v -0.871863 1.583330 -0.514136
v -0.504991 1.445001 0.665828
v 0.538920 1.576001 0.739395
v -0.103421 0.771858 -0.531528
v -0.645904 1.147837 -0.203409
v -0.299933 0.712493 0.405030
v 0.064810 -0.084678 -0.008753
v 0.347396 0.689177 0.546372
v -0.387266 2.101895 -0.094751
v 0.197824 1.940448 0.136279
v 0.810263 2.060191 -0.277938
v -0.920482 1.919005 -0.030065
v -0.444244 2.031618 0.211464
v 0.544523 2.057724 0.385006
v 0.471743 1.929145 0.173896
v 0.644337 1.977502 -0.834702
v 0.927560 1.912748 -0.740698
v -0.438173 1.604709 -1.011207
v 0.552406 1.486565 -0.891706
v 0.128956 2.039962 -0.926489
v 0.529473 1.946793 -1.059163
v 1.011018 1.641115 -0.332796
v 0.609724 1.881852 -0.688195
v 0.087499 2.031253 -1.210486
v -0.180066 2.048998 0.648471
v -0.004475 2.005205 -0.512146
v 0.451974 2.045588 0.719903
v -0.851350 2.010708 0.293197
v -0.913793 1.828999 0.281038
v -0.883468 1.480775 0.103226
v -0.468529 1.761815 0.775975
v -0.541842 2.014584 0.667731
v -0.600493 2.095968 -0.806359
v -0.639330 1.858349 -0.948344
v 0.665510 1.718003 -0.952222
v 0.083839 2.025430 -0.741780
v 0.768888 2.027952 0.021079
v -0.604697 1.935135 -0.121202
v -0.524107 2.056032 -0.596147
v 0.907116 2.094204 -0.377686
v -0.002939 2.076848 -0.164579
v 0.545399 1.840011 -0.371550
v 0.768275 1.660071 0.557098
v -0.213896 1.209612 -0.795647
v 0.167980 2.114673 0.706002
v -0.155638 1.071284 0.625827
v 0.002197 0.559126 0.578030
v 0.600745 1.014277 0.480762
v 0.822347 1.187586 -0.319178
v 0.746200 1.017758 0.148425
v 0.274674 0.304983 -0.406953
v 0.613411 1.097115 -0.594901
v -0.073625 0.331275 -0.144438
v -0.037277 0.409435 -0.377130
v 0.041706 1.324241 -0.796616
v 1.030737 1.976955 -0.017089
v 0.920817 1.687715 0.241507
v 0.082684 1.748632 0.877270
v 0.317356 0.085694 -0.127662
vt 0.755768 0.108104
vt 0.746076 0.217260
vt 0.794789 0.195675
vt 0.000000 0.000000
vt 0.000000 0.000000
vt 0.000000 0.000000
vt 0.000000 0.000000
vt 0.000000 0.000000
vt 0.000000 0.000000
vt 0.000000 0.000000
vt 0.000000 0.000000
vt 0.000000 0.000000
vt 0.000000 0.000000
vt 0.000000 0.000000
vt 0.000000 0.000000
vt 0.000000 0.000000
vt 0.000000 0.000000
vt 0.000000 0.000000
vt 0.000000 0.000000
vt 0.000000 0.000000
vt 0.000000 0.000000
vt 0.000000 0.000000
vt 0.000000 0.000000
vt 0.000000 0.000000
vt 0.000000 0.000000
vt 0.000000 0.000000
vt 0.000000 0.000000
vt 0.000000 0.000000
vt 0.000000 0.000000
vt 0.000000 0.000000
vt 0.000000 0.000000
vt 0.000000 0.000000
vt 0.000000 0.000000
vt 0.000000 0.000000
vt 0.000000 0.000000
vt 0.000000 0.000000
vt 0.000000 0.000000
vt 0.000000 0.000000
vt 0.000000 0.000000
vt 0.000000 0.000000
vt 0.000000 0.000000
vt 0.000000 0.000000
vt 0.000000 0.000000
vt 0.000000 0.000000
vt 0.000000 0.000000
vt 0.000000 0.000000
vt 0.000000 0.000000
vt 0.000000 0.000000
vt 0.865120 0.275556
vt 0.795454 0.275556
vt 0.842759 0.314921
vt 0.857812 0.226104
vt 0.933624 0.236329
vt 0.877610 0.120397
vt 0.659090 0.275556
vt 0.613636 0.275556
vt 0.606620 0.314921
vt 0.685206 0.206921
vt 0.615043 0.212567
vt 0.652574 0.129383
vt 0.598418 0.144454
vt 0.568181 0.196826
vt 0.704545 0.354286
vt 0.659090 0.354286
vt 0.738773 0.423123
vt 0.285613 0.275556
vt 0.204545 0.275556
vt 0.283121 0.314921
vt 0.242257 0.236191
vt 0.181818 0.236191
vt 0.142440 0.184096
vt 0.121135 0.236191
vt 0.947675 0.275556
vt 0.909090 0.314921
vt 0.977940 0.338227
vt 0.772727 0.314921
vt 0.749999 0.275556
vt 0.704545 0.275556
vt 0.681818 0.314921
vt 0.499999 0.236191
vt 0.454545 0.236191
vt 0.477272 0.275556
vt 0.454545 0.314921
vt 0.499999 0.314921
vt 0.113636 0.275556
vt 0.068182 0.275556
vt 0.107506 0.343669
vt 0.045454 0.236191
vt 0.318181 0.236191
vt 0.902505 0.382245
vt 0.861847 0.390553
vt 0.886363 0.433017
vt 0.380845 0.375302
vt 0.310191 0.379812
vt 0.522727 0.354286
vt 0.477272 0.354286
vt 0.499999 0.393651
vt 0.696253 0.112474
vt 0.807647 0.096977
vt 0.560001 0.132265
vt 0.510644 0.126912
vt 0.420145 0.157461
vt 0.486901 0.180148
vt 0.479632 0.043452
vt 0.415612 0.086758
vt 0.431818 0.039365
vt 0.381701 0.126171
vt 0.343014 0.126171
vt 0.217824 0.141175
vt 0.330971 0.192789
vt 0.313723 0.078731
vt 0.295454 0.039365
vt 0.248379 0.042172
vt 0.115257 0.042172
vt 0.091949 0.118096
vt 0.070365 0.043147
vt 0.039207 0.176546
vt 0.045454 0.078731
vt 0.021109 0.120898
vt 0.611276 0.043452
vt 0.639316 0.007890
vt 0.840908 0.039365
vt 0.863635 0.078731
vt 0.814427 0.006502
vt 0.237494 0.196826
vt 0.396269 0.196826
vt 0.090909 0.000000
vt 0.272727 0.000000
vt 0.454545 0.000000
vt 0.522727 0.196826
vt 0.931817 0.196826
vn 0.6572 -0.2544 0.7095
vn 0.8950 0.0770 0.4393
vn -0.1890 0.9233 -0.3344
vn 0.0491 0.9715 0.2321
vn 0.3010 0.9119 -0.2788
vn -0.9368 0.3303 0.1157
vn 0.0217 0.9974 -0.0682
vn 0.0434 0.9989 -0.0159
vn 0.2072 0.9764 -0.0602
vn -0.2691 0.9608 0.0664
vn 0.8718 -0.3062 -0.3823
vn -0.5000 0.7267 -0.4710
vn 0.3170 -0.3819 -0.8681
vn 0.6250 0.0068 -0.7806
vn -0.6123 0.7878 0.0669
vn 0.2480 0.9592 0.1360
vn 0.0039 0.8369 0.5473
vn -0.6228 0.4738 -0.6226
vn -0.1363 0.9704 -0.1994
vn -0.2289 -0.2118 -0.9501
vn 0.1117 0.9926 -0.0467
vn -0.7753 -0.2560 -0.5774
vn 0.1373 0.9700 -0.2006
vn -0.4513 0.8228 -0.3455
vn -0.6542 0.7563 -0.0090
vn -0.2520 0.9590 0.1300
vn -0.1296 0.9463 -0.2962
vn -0.9421 0.3163 0.1118
vn -0.2846 0.9581 0.0336
vn 0.3699 0.8995 -0.2327
vn 0.9857 0.0810 -0.1477
vn 0.0868 0.9840 0.1554
vn -0.1087 0.9490 -0.2959
vn 0.3079 0.9511 0.0256
vn 0.2742 0.9314 0.2393
vn -0.6201 0.7842 -0.0224
vn -0.0075 0.9694 0.2455
vn 0.1553 -0.5232 -0.8379
vn 0.1091 0.8318 -0.5442
vn -0.2219 -0.1957 -0.9552
vn 0.0989 0.9944 0.0383
vn 0.3299 0.8517 -0.4072
vn 0.7274 -0.3184 -0.6079
vn 0.3346 0.0665 -0.9400
vn 0.4526 0.8674 0.2066
vn -0.1940 -0.1810 -0.9641
vn -0.1000 0.9626 -0.2517
vn -0.0254 0.9994 -0.0244
vn 0.0460 0.9949 0.0895
vn -0.1145 0.9675 -0.2254
vn -0.4093 -0.0999 -0.9069
vn 0.1645 0.7940 0.5853
vn 0.3009 0.0341 0.9530
vn 0.3543 0.1042 0.9293
vn 0.5837 0.1413 0.7996
vn -0.1798 -0.2861 0.9412
vn 0.8879 0.4296 -0.1647
vn 0.9620 -0.2149 0.1685
vn 0.9474 -0.2707 0.1708
vn 0.8514 -0.3655 -0.3763
vn 0.3793 0.9238 -0.0523
vn -0.0479 0.9780 0.2032
vn -0.9010 0.4314 -0.0447
vn -0.9634 -0.1836 0.1954
vn 0.0228 0.9679 0.2502
vn -0.0938 0.9954 0.0171
vn -0.3371 0.2863 0.8969
vn -0.0803 0.9709 0.2257
vn -0.2292 0.9085 0.3494
vn -0.1818 -0.0609 0.9814
vn 0.2306 0.9680 0.0988
vn 0.6882 0.2824 0.6684
vn 0.0546 0.9972 0.0512
vn 0.8861 0.0726 0.4578
vn 0.1732 0.9777 -0.1185
vn 0.2185 0.9476 0.2332
vn 0.3867 -0.1917 -0.9021
vn 0.1546 0.9652 -0.2111
vn -0.0458 0.9986 0.0275
vn -0.7535 0.2174 0.6204
vn -0.7363 0.0744 0.6725
vn -0.6301 0.7720 -0.0837
vn -0.7202 0.4388 -0.5374
vn 0.2848 0.9302 0.2317
vn 0.0673 0.9818 0.1775
vn 0.0779 0.9901 0.1172
vn 0.2424 0.9539 0.1772
vn 0.8750 -0.2742 0.3989
vn 0.5715 -0.2905 0.7675
vn -0.7220 0.6449 0.2505
vn -0.6851 -0.3910 -0.6146
vn -0.9580 -0.2137 -0.1913
vn -0.4637 0.8727 -0.1527
vn 0.8799 -0.2824 0.3821
vn 0.9234 -0.3838 0.0110
vn 0.7839 -0.4216 -0.4557
vn 0.0426 -0.6014 -0.7978
vn 0.0232 -0.2402 -0.9705
vn 0.1293 -0.4564 -0.8803
vn -0.2236 -0.4163 -0.8813
vn 0.2061 -0.4669 -0.8600
vn -0.6033 -0.6177 -0.5045
vn -0.6747 -0.4986 -0.5442
vn -0.9329 -0.2712 -0.2368
vn -0.6757 -0.5118 -0.5306
vn -0.8195 -0.5701 0.0580
vn -0.8013 -0.5976 0.0281
vn -0.9257 -0.3527 -0.1366
vn -0.7742 -0.3933 0.4959
vn -0.6068 -0.5669 0.5572
vn -0.5735 -0.2496 0.7803
vn -0.3262 -0.3968 0.8580
vn 0.7795 -0.4393 -0.4465
vn 0.9088 -0.4171 -0.0035
vn 0.7744 -0.4348 -0.4597
vn 0.8080 -0.4750 0.3486
vn 0.3018 -0.6260 0.7190
vn 0.1128 -0.0578 0.9919
vn -0.0924 -0.3178 0.9436
vn 0.1929 -0.2483 0.9493
vn 0.6336 -0.5902 0.5002
vn 0.7555 -0.5044 0.4180
vn -0.7455 -0.1407 0.6515
vn -0.9116 -0.4023 -0.0840
vn -0.5557 -0.6543 -0.5130
vn -0.7927 -0.3306 0.5122
vn 0.0799 -0.6789 -0.7299
vn 0.2769 -0.6237 -0.7310
vn -0.1872 -0.3604 -0.9138
vn -0.4885 -0.8013 -0.3454
vn -0.3111 -0.7700 -0.5570
vn 0.5469 -0.4516 -0.7050
vn -0.2132 -0.2989 0.9302
vn -0.8516 -0.5142 -0.1014
vn -0.1384 -0.5337 -0.8343
vn 0.6906 -0.4034 -0.6003
usemtl green
s off
f 59/1/1 54/2/1 14/3/1
f 8/4/2 54/5/2 68/6/2
f 48/7/3 53/8/3 2/9/3
f 24/10/4 1/11/4 20/12/4
f 28/13/5 32/14/5 27/15/5
f 23/16/6 6/17/6 40/18/6
f 25/19/7 8/4/7 48/7/7
f 26/20/8 2/9/8 21/21/8
f 32/14/9 35/22/9 31/23/9
f 22/24/10 48/7/10 51/25/10
f 28/13/11 33/26/11 3/27/11
f 20/12/12 4/28/12 49/29/12
f 30/30/13 9/31/13 46/32/13
f 32/14/14 28/13/14 46/32/14
f 20/12/15 49/29/15 24/10/15
f 47/33/16 34/34/16 31/23/16
f 34/34/17 27/15/17 31/23/17
f 44/35/18 5/36/18 45/37/18
f 37/38/19 4/28/19 52/39/19
f 35/22/20 9/31/20 5/36/20
f 31/23/21 35/22/21 5/36/21
f 12/40/22 11/41/22 45/37/22
f 52/39/23 34/34/23 37/38/23
f 48/7/24 26/20/24 25/19/24
f 48/7/25 22/24/25 34/34/25
f 48/7/26 2/9/26 26/20/26
f 36/42/27 56/43/27 21/21/27
f 39/44/28 23/16/28 40/18/28
f 4/28/29 1/11/29 52/39/29
f 4/28/30 20/12/30 1/11/30
f 33/26/31 28/13/31 67/45/31
f 44/35/32 50/46/32 47/33/32
f 21/21/33 56/43/33 25/19/33
f 36/42/34 21/21/34 1/11/34
f 52/39/35 21/21/35 2/9/35
f 53/8/36 48/7/36 34/34/36
f 49/29/37 4/28/37 50/46/37
f 10/47/38 9/31/38 30/30/38
f 25/19/39 26/20/39 21/21/39
f 9/31/40 10/47/40 5/36/40
f 47/33/41 5/36/41 44/35/41
f 51/25/42 28/13/42 27/15/42
f 28/13/43 3/27/43 46/32/43
f 35/22/44 32/14/44 9/31/44
f 52/39/45 53/8/45 34/34/45
f 5/36/46 10/47/46 29/48/46
f 23/16/47 39/44/47 24/10/47
f 36/42/48 1/11/48 24/10/48
f 5/36/49 47/33/49 31/23/49
f 49/29/50 23/16/50 24/10/50
f 5/36/51 29/48/51 45/37/51
f 7/49/52 38/50/52 56/51/52
f 69/52/53 14/3/53 7/49/53
f 7/49/54 14/3/54 38/50/54
f 14/3/55 54/2/55 38/50/55
f 42/53/56 57/54/56 69/52/56
f 67/55/57 28/56/57 51/57/57
f 68/58/58 33/59/58 67/55/58
f 68/58/59 61/60/59 33/59/59
f 33/59/60 60/61/60 3/62/60
f 2/63/61 53/64/61 52/65/61
f 44/66/62 23/67/62 50/68/62
f 11/69/63 6/70/63 23/67/63
f 41/71/64 40/72/64 6/70/64
f 23/16/65 49/29/65 50/46/65
f 43/73/66 36/74/66 24/75/66
f 42/53/67 7/49/67 43/73/67
f 43/73/68 7/49/68 36/74/68
f 7/49/69 56/51/69 36/74/69
f 42/53/70 69/52/70 7/49/70
f 38/50/71 25/76/71 56/51/71
f 54/2/72 8/77/72 38/50/72
f 38/50/73 8/77/73 25/76/73
f 68/58/74 67/55/74 8/78/74
f 8/78/75 67/55/75 48/79/75
f 67/55/76 51/57/76 48/79/76
f 46/80/77 9/81/77 32/82/77
f 32/82/78 31/83/78 27/84/78
f 39/85/79 43/86/79 24/87/79
f 39/85/80 40/72/80 43/86/80
f 40/72/81 42/88/81 43/86/81
f 11/69/82 23/67/82 44/66/82
f 45/89/83 11/69/83 44/66/83
f 1/90/84 21/91/84 52/92/84
f 37/93/85 50/68/85 4/94/85
f 47/33/86 50/46/86 37/38/86
f 34/95/87 47/96/87 37/97/87
f 54/2/88 59/98/88 68/58/88
usemtl ground
f 19/99/89 59/1/89 14/3/89
f 34/34/90 51/25/90 27/15/90
f 45/37/91 29/48/91 12/40/91
f 11/41/92 12/40/92 6/17/92
f 34/34/93 22/24/93 51/25/93
f 59/98/94 61/60/94 68/58/94
f 61/60/95 60/61/95 33/59/95
f 60/61/96 63/100/96 3/62/96
f 63/101/97 66/102/97 30/103/97
f 62/104/98 15/105/98 63/101/98
f 63/101/99 15/105/99 66/102/99
f 62/104/100 65/106/100 15/105/100
f 15/105/101 55/107/101 66/102/101
f 55/108/102 16/109/102 29/110/102
f 15/111/103 16/109/103 55/108/103
f 65/112/104 64/113/104 15/111/104
f 15/111/105 64/113/105 16/109/105
f 64/114/106 17/115/106 16/109/106
f 16/109/107 17/115/107 41/71/107
f 64/114/108 18/116/108 17/115/108
f 17/115/109 13/117/109 41/71/109
f 18/116/110 58/118/110 17/115/110
f 58/118/111 57/119/111 17/115/111
f 17/115/112 57/119/112 13/117/112
f 60/61/113 62/120/113 63/100/113
f 61/60/114 70/121/114 60/61/114
f 60/61/115 70/121/115 62/120/115
f 61/60/116 59/98/116 70/121/116
f 18/122/117 19/99/117 58/123/117
f 58/123/118 19/99/118 57/54/118
f 57/54/119 19/99/119 69/52/119
f 19/99/120 14/3/120 69/52/120
f 18/122/121 70/124/121 19/99/121
f 70/124/122 59/1/122 19/99/122
f 40/72/123 13/117/123 42/88/123
f 12/125/124 41/71/124 6/70/124
f 29/110/125 16/109/125 12/125/125
f 41/71/126 13/117/126 40/72/126
f 30/103/127 66/102/127 10/126/127
f 66/102/128 55/108/128 10/126/128
f 70/127/129 18/116/129 64/114/129
f 70/128/130 64/113/130 65/112/130
f 70/129/131 65/106/131 62/104/131
f 63/100/132 30/103/132 46/130/132
f 57/54/133 42/53/133 13/131/133
f 16/109/134 41/71/134 12/125/134
f 55/108/135 29/110/135 10/126/135
f 63/100/136 46/130/136 3/62/136
