# Blender v2.81 (sub 16) OBJ File: 'bruh_project_lopoly_floating_ground.blend'
# www.blender.org
mtllib Platform_05.mtl
o Rock_mesh_)3_Icosphere
v 0.971770 1.603074 -0.509454
v -0.704888 1.687312 1.073654
v -0.278056 0.965989 -0.606646
v -0.893937 1.317143 -0.065472
v -0.565364 0.957962 0.463773
v -0.092766 0.015858 -0.011853
v 0.229004 0.965937 0.628594
v 0.728021 1.777639 -0.364080
v -0.472583 1.701973 -0.832228
v 0.599523 1.702682 -0.862140
v 1.198221 1.683274 -0.100568
v -1.184521 1.724258 0.389660
v 0.719471 1.801254 -0.888269
v -0.394599 1.329840 -0.756621
v -0.328251 1.301126 0.860942
v -0.203424 0.810738 0.670358
v 0.618713 1.248415 0.681327
v 0.962981 1.389587 -0.171866
v 0.820445 1.241996 0.291036
v 0.189924 0.508144 -0.429635
v 0.638931 1.353592 -0.594071
v -0.316696 0.554900 -0.269742
v -0.215825 0.591869 -0.417180
v -0.121230 1.471055 -0.791621
v 0.223436 0.252196 -0.190900
v 0.616344 1.814727 -0.354767
v 0.793441 1.814727 -0.262774
v 1.199613 1.814727 0.069786
v 0.731881 1.814727 -0.309524
v 1.148837 1.814727 0.470165
v 1.114538 1.814727 0.615776
v 0.939941 1.814727 1.014091
v 1.101463 1.814727 0.640433
v 0.667982 1.814727 1.257359
v 0.666558 1.814727 1.258273
v 0.118480 1.814727 1.294662
v -0.035829 1.814727 1.285443
v -0.531199 1.814727 1.166144
v -0.680263 1.814727 1.154983
v 0.286645 1.814727 -0.979434
v 0.622635 1.814727 -0.913919
v 0.663372 1.814727 -0.889703
v -0.060461 1.814727 -0.936518
v -0.187187 1.814727 -0.941577
v -0.200363 1.814727 -0.942744
v 0.601917 1.814727 -0.532605
v -0.237768 1.814727 -0.931667
v -0.441693 1.814727 -0.783169
v -0.678749 1.814727 -0.709390
v -1.060283 1.814727 -0.423071
v -1.144615 1.814727 -0.347910
v -1.158742 1.814727 -0.234506
v -1.216161 1.814727 0.329074
v -1.192659 1.814727 0.443425
v -0.835047 1.814727 0.973450
v 0.643377 1.987939 -0.199457
v 0.967147 1.987939 0.065636
v 0.594306 1.987939 -0.236723
v 0.502209 1.987939 -0.272787
v 0.926673 1.987939 0.384789
v 0.899332 1.987939 0.500857
v 0.760156 1.987939 0.818364
v 0.888910 1.987939 0.520513
v 0.543371 1.987939 1.012280
v 0.542236 1.987939 1.013009
v 0.105349 1.987939 1.042015
v -0.017655 1.987939 1.034667
v -0.412527 1.987939 0.939570
v -0.531349 1.987939 0.930673
v -0.654732 1.987939 0.785968
v 0.239397 1.987939 -0.770725
v 0.507223 1.987939 -0.718502
v 0.539696 1.987939 -0.699198
v -0.037290 1.987939 -0.736515
v -0.138306 1.987939 -0.740548
v -0.148809 1.987939 -0.741479
v 0.490709 1.987939 -0.414547
v -0.178625 1.987939 -0.732649
v -0.341179 1.987939 -0.614277
v -0.530143 1.987939 -0.555466
v -0.834273 1.987939 -0.327233
v -0.901497 1.987939 -0.267321
v -0.912758 1.987939 -0.176924
v -0.958528 1.987939 0.272321
v -0.939793 1.987939 0.363473
vt 0.807647 0.096977
vt 0.755768 0.108104
vt 0.794561 0.195164
vt 0.794839 0.195290
vt 0.696253 0.112474
vt 0.652574 0.129383
vt 0.683147 0.202029
vt 0.685910 0.200898
vt 0.598418 0.144454
vt 0.615043 0.212567
vt 0.568181 0.196826
vt 0.560001 0.132265
vt 0.510644 0.126912
vt 0.420145 0.157461
vt 0.486901 0.180148
vt 0.479632 0.043452
vt 0.415612 0.086758
vt 0.431818 0.039365
vt 0.381701 0.126171
vt 0.343014 0.126171
vt 0.217824 0.141175
vt 0.330971 0.192789
vt 0.313723 0.078731
vt 0.295454 0.039365
vt 0.248379 0.042172
vt 0.115257 0.042172
vt 0.091949 0.118096
vt 0.142440 0.184096
vt 0.070365 0.043147
vt 0.039207 0.176546
vt 0.045454 0.078731
vt 0.021109 0.120898
vt 0.611276 0.043452
vt 0.639316 0.007890
vt 0.840908 0.039365
vt 0.863635 0.078731
vt 0.877610 0.120397
vt 0.847464 0.199469
vt 0.863760 0.194345
vt 0.814427 0.006502
vt 0.397720 0.194434
vt 0.411279 0.194064
vt 0.393934 0.193728
vt 0.090909 0.000000
vt 0.272727 0.000000
vt 0.454545 0.000000
vt 0.522727 0.196826
vt 0.385512 0.196161
vt 0.669288 0.208202
vt 0.000000 0.000000
vt 0.000000 0.000000
vt 0.000000 0.000000
vt 0.794561 0.195164
vt 0.794839 0.195290
vt 0.746932 0.207611
vt 0.000000 0.000000
vt 0.000000 0.000000
vt 0.000000 0.000000
vt 0.000000 0.000000
vt 0.000000 0.000000
vt 0.000000 0.000000
vt 0.000000 0.000000
vt 0.000000 0.000000
vt 0.000000 0.000000
vt 0.138377 0.194032
vt 0.151491 0.196070
vt 0.236811 0.194892
vt 0.250308 0.196273
vt 0.499999 0.236191
vt 0.493189 0.236191
vt 0.496740 0.241837
vt 0.059623 0.191410
vt 0.915122 0.198035
vt 0.932422 0.210046
vt 0.931817 0.196826
vt 0.221786 0.194722
vt 0.041297 0.196506
vt 0.493189 0.236191
vt 0.496740 0.241837
vt 0.741672 0.207998
vt 0.000000 0.000000
vt 0.000000 0.000000
vt 0.000000 0.000000
vt 0.000000 0.000000
vt 0.630989 0.235370
vt 0.000000 0.000000
vt 0.000000 0.000000
vt 0.612612 0.281303
vt 0.619909 0.275556
vt 0.613636 0.275556
vt 0.000000 0.000000
vt 0.358331 0.655719
vt 0.363119 0.618786
vt 0.324819 0.588110
vt 0.319014 0.583797
vt 0.308119 0.579624
vt 0.306759 0.563219
vt 0.312554 0.530279
vt 0.308712 0.528045
vt 0.277030 0.522002
vt 0.244299 0.525961
vt 0.232349 0.525494
vt 0.231106 0.525386
vt 0.227579 0.526408
vt 0.208350 0.540106
vt 0.185996 0.546912
vt 0.150019 0.573323
vt 0.142067 0.580256
vt 0.140735 0.590717
vt 0.135320 0.642704
vt 0.137537 0.653252
vt 0.171258 0.702144
vt 0.185854 0.718889
vt 0.199910 0.719919
vt 0.246621 0.730923
vt 0.261172 0.731774
vt 0.312854 0.728417
vt 0.312988 0.728333
vt 0.338633 0.705893
vt 0.353864 0.671425
vt 0.355097 0.669151
vt 0.000000 0.000000
vt 0.000000 0.000000
vt 0.059623 0.191410
vt 0.138377 0.194032
vt 0.000000 0.000000
vt 0.000000 0.000000
vt 0.630989 0.235370
vt 0.669288 0.208202
vt 0.397720 0.194434
vt 0.411279 0.194064
vt 0.683147 0.202029
vt 0.393934 0.193728
vt 0.685910 0.200898
vt 0.741672 0.207998
vt 0.000000 0.000000
vt 0.000000 0.000000
vt 0.746932 0.207611
vt 0.000000 0.000000
vt 0.000000 0.000000
vt 0.385512 0.196161
vt 0.847464 0.199469
vt 0.863760 0.194345
vt 0.000000 0.000000
vt 0.000000 0.000000
vt 0.915122 0.198035
vt 0.236811 0.194892
vt 0.250308 0.196273
vt 0.932422 0.210046
vt 0.151491 0.196070
vt 0.221786 0.194722
vt 0.041297 0.196506
vt 0.000000 0.000000
vt 0.000000 0.000000
vt 0.000000 0.000000
vt 0.612612 0.281303
vt 0.619909 0.275556
vn 0.4012 -0.6701 0.6245
vn 0.7172 -0.5839 0.3803
vn 0.7754 -0.6303 0.0378
vn 0.7754 -0.5427 -0.3230
vn 0.6113 -0.6760 -0.4116
vn 0.1141 -0.5969 -0.7941
vn 0.1189 -0.2500 -0.9609
vn 0.1757 -0.3862 -0.9055
vn -0.1228 -0.4646 -0.8770
vn 0.0677 -0.3616 -0.9299
vn -0.7763 -0.2777 -0.5659
vn -0.7205 -0.4487 -0.5288
vn -0.7008 -0.4116 -0.5827
vn -0.7231 -0.3959 -0.5660
vn -0.7859 -0.6142 0.0711
vn -0.7793 -0.6238 0.0604
vn -0.9065 -0.4146 -0.0795
vn -0.7088 -0.5274 0.4685
vn -0.5688 -0.5798 0.5833
vn -0.5727 -0.4195 0.7043
vn -0.2605 -0.6482 0.7156
vn 0.7156 -0.4789 -0.5084
vn 0.8348 -0.5442 0.0835
vn 0.6931 -0.4411 -0.5702
vn 0.7028 -0.6056 0.3732
vn 0.2876 -0.6004 0.7462
vn 0.2010 -0.3100 0.9293
vn -0.0468 -0.6204 0.7829
vn 0.0524 -0.6123 0.7889
vn 0.6833 -0.5529 0.4769
vn 0.4172 -0.6867 0.5953
vn 0.0367 -0.3937 -0.9185
vn 0.0814 -0.3854 -0.9191
vn -0.1385 -0.4736 -0.8698
vn -0.3814 -0.8008 -0.4617
vn -0.1630 -0.6843 -0.7107
vn 0.2927 -0.5614 -0.7741
vn -0.2752 -0.2465 -0.9293
vn 0.5566 -0.5239 -0.6448
vn 0.8236 -0.5329 0.1940
vn -0.0719 -0.8101 -0.5819
vn 0.2891 0.8449 0.4501
vn 0.5165 -0.6323 0.5774
vn 0.3132 0.9494 -0.0254
vn 0.3805 0.8447 -0.3764
vn 0.1717 -0.4422 -0.8803
vn 0.4489 0.7057 -0.5482
vn 0.5925 0.8051 0.0266
vn -0.9590 -0.2034 0.1971
vn -0.5300 -0.6045 -0.5947
vn 0.2253 0.8976 -0.3789
vn -0.7678 -0.3769 0.5181
vn -0.0634 -0.5282 0.8467
vn -0.8621 -0.4953 -0.1074
vn -0.7352 -0.2580 0.6269
vn 0.3100 0.7949 -0.5215
vn 0.7330 -0.6019 0.3168
vn -0.2661 0.4450 -0.8551
vn -0.5238 0.4564 -0.7193
vn 0.9774 -0.1710 0.1240
vn -0.9186 -0.3839 -0.0936
vn 0.2189 0.7997 -0.5591
vn -0.1945 -0.5568 0.8076
vn -0.5854 -0.2206 -0.7801
vn 0.4051 0.7425 -0.5334
vn 0.2324 0.9718 0.0400
vn -0.0000 1.0000 -0.0000
vn 0.3014 0.5629 -0.7696
vn -0.4666 0.8265 0.3148
vn -0.0800 0.7581 -0.6473
vn 0.5949 0.8002 0.0754
vn 0.0262 0.7542 -0.6562
vn 0.5762 0.8060 0.1357
vn 0.0585 0.7492 -0.6598
vn 0.5332 0.8139 0.2305
vn 0.8185 0.5707 -0.0664
vn 0.5115 0.8154 0.2712
vn 0.8754 0.4593 0.1507
vn 0.3641 0.8378 0.4070
vn -0.3902 0.7488 -0.5358
vn -0.1819 0.7679 -0.6142
vn -0.0338 0.8235 0.5663
vn -0.1996 0.7410 -0.6412
vn 0.0374 0.8251 0.5637
vn -0.3794 0.7748 -0.5056
vn -0.1340 0.8199 0.5566
vn -0.4094 0.7883 -0.4593
vn -0.0443 0.8047 0.5920
vn -0.5657 0.8226 -0.0576
vn -0.4232 0.8311 0.3608
vn 0.4871 0.6394 -0.5949
vn -0.5633 0.8233 -0.0702
vn 0.1204 0.7771 -0.6177
vn 0.4688 0.6318 -0.6173
vn -0.5376 0.8359 0.1105
usemtl ground
s off
f 7/1/1 17/2/1 34/3/1 35/4/1
f 17/5/2 19/6/2 31/7/2 33/8/2
f 19/6/3 18/9/3 11/10/3
f 11/10/4 18/9/4 1/11/4
f 18/9/5 21/12/5 1/11/5
f 21/13/6 24/14/6 10/15/6
f 20/16/7 3/17/7 21/13/7
f 21/13/8 3/17/8 24/14/8
f 20/16/9 23/18/9 3/17/9
f 3/17/10 14/19/10 24/14/10
f 14/20/11 4/21/11 9/22/11
f 3/23/12 4/21/12 14/20/12
f 23/24/13 22/25/13 3/23/13
f 3/23/14 22/25/14 4/21/14
f 22/26/15 5/27/15 4/21/15
f 4/21/16 5/27/16 12/28/16
f 22/26/17 6/29/17 5/27/17
f 5/27/18 2/30/18 12/28/18
f 6/29/19 16/31/19 5/27/19
f 16/31/20 15/32/20 5/27/20
f 5/27/21 15/32/21 2/30/21
f 18/9/22 20/33/22 21/12/22
f 19/6/23 25/34/23 18/9/23
f 18/9/24 25/34/24 20/33/24
f 19/6/25 17/5/25 25/34/25
f 6/35/26 7/1/26 16/36/26
f 16/36/27 7/1/27 15/37/27
f 15/37/28 7/1/28 36/38/28 37/39/28
f 7/1/29 35/4/29 36/38/29
f 6/35/30 25/40/30 7/1/30
f 25/40/31 17/2/31 7/1/31
f 10/15/32 24/14/32 44/41/32 43/42/32
f 24/14/33 14/20/33 45/43/33 44/41/33
f 25/44/34 6/29/34 22/26/34
f 25/45/35 22/25/35 23/24/35
f 25/46/36 23/18/36 20/16/36
f 21/12/37 10/15/37 13/47/37
f 14/20/38 9/22/38 47/48/38 45/43/38
f 21/12/39 13/47/39 1/11/39
f 30/49/40 31/7/40 19/6/40 11/10/40
f 43/50/41 40/51/41 10/52/41
f 35/4/42 34/3/42 64/53/42 65/54/42
usemtl green
f 17/2/43 32/55/43 34/3/43
f 8/56/44 46/57/44 26/58/44
f 8/56/45 11/59/45 1/60/45
f 10/52/46 40/51/46 41/61/46 13/62/46
f 11/59/47 8/56/47 27/63/47 28/64/47
f 8/56/48 1/60/48 13/62/48
f 12/28/49 54/65/49 53/66/49
f 9/22/50 4/21/50 51/67/50 50/68/50
f 13/69/51 41/70/51 42/71/51
f 12/28/52 2/30/52 55/72/52 54/65/52
f 15/37/53 38/73/53 39/74/53 2/75/53
f 4/21/54 12/28/54 52/76/54 51/67/54
f 39/77/55 55/72/55 2/30/55
f 42/71/56 41/70/56 72/78/56 73/79/56
f 33/8/57 32/80/57 17/5/57
f 49/81/58 48/82/58 9/83/58
f 48/82/59 47/84/59 9/83/59
f 28/85/60 30/49/60 11/10/60
f 53/66/61 52/76/61 12/28/61
f 26/58/62 29/86/62 8/56/62
f 37/39/63 38/73/63 15/37/63
f 50/87/64 49/81/64 9/83/64
f 29/88/65 27/89/65 8/90/65
f 42/91/66 46/57/66 8/56/66 13/62/66
f 60/92/67 57/93/67 56/94/67 58/95/67 59/96/67 77/97/67 73/98/67 72/99/67 71/100/67 74/101/67 75/102/67 76/103/67 78/104/67 79/105/67 80/106/67 81/107/67 82/108/67 83/109/67 84/110/67 85/111/67 70/112/67 69/113/67 68/114/67 67/115/67 66/116/67 65/117/67 64/118/67 62/119/67 63/120/67 61/121/67
f 29/86/68 26/58/68 59/122/68 58/123/68
f 54/65/69 55/72/69 70/124/69 85/125/69
f 40/51/70 43/50/70 74/126/70 71/127/70
f 30/49/71 28/85/71 57/128/71 60/129/71
f 43/42/72 44/41/72 75/130/72 74/131/72
f 31/7/73 30/49/73 60/129/73 61/132/73
f 44/41/74 45/43/74 76/133/74 75/130/74
f 32/80/75 33/8/75 63/134/75 62/135/75
f 26/58/76 46/57/76 77/136/76 59/122/76
f 33/8/77 31/7/77 61/132/77 63/134/77
f 46/57/78 42/91/78 73/137/78 77/136/78
f 34/3/79 32/55/79 62/138/79 64/53/79
f 47/84/80 48/82/80 79/139/80 78/140/80
f 45/43/81 47/48/81 78/141/81 76/133/81
f 37/39/82 36/38/82 66/142/82 67/143/82
f 48/82/83 49/81/83 80/144/83 79/139/83
f 36/38/84 35/4/84 65/54/84 66/142/84
f 49/81/85 50/87/85 81/145/85 80/144/85
f 38/73/86 37/39/86 67/143/86 68/146/86
f 50/68/87 51/67/87 82/147/87 81/148/87
f 39/74/88 38/73/88 68/146/88 69/149/88
f 52/76/89 53/66/89 84/150/89 83/151/89
f 55/72/90 39/77/90 69/152/90 70/124/90
f 28/64/91 27/63/91 56/153/91 57/154/91
f 51/67/92 52/76/92 83/151/92 82/147/92
f 41/61/93 40/51/93 71/127/93 72/155/93
f 27/89/94 29/88/94 58/156/94 56/157/94
f 53/66/95 54/65/95 85/125/95 84/150/95
