# Blender v2.81 (sub 16) OBJ File: 'bruh_project_lopoly_floating_ground.blend'
# www.blender.org
mtllib Platform_02.mtl
o rock_mesh_01.002_Icosphere.013
v 1.183972 1.975070 -0.593192
v -1.493174 2.075771 -0.015038
v -0.468020 1.862295 -1.057902
v -1.420181 2.178522 -0.473474
v -1.364955 1.787523 -0.432093
v -1.016964 1.641206 0.914155
v 0.832998 1.781265 1.152503
v -0.455897 0.936923 -0.622161
v -1.162683 1.271695 -0.177306
v -0.907693 0.913152 0.395706
v -0.049506 -0.027277 0.059938
v 0.138470 0.921114 0.610399
v -0.920797 1.801550 -0.964606
v 0.460363 1.675853 -0.837502
v 1.321620 1.922163 -0.212546
v -1.420781 2.153578 0.512122
v -1.387503 1.678207 0.214104
v -0.959402 2.021838 1.201722
v -1.135462 2.174744 -0.897511
v 0.994059 2.147231 -0.884851
v 1.070724 1.877720 0.914007
v -0.668651 1.323089 -0.763573
v -0.645577 1.255706 0.809099
v -0.558110 0.766190 0.646306
v 0.794941 1.203213 0.655281
v 1.083696 1.329112 -0.270766
v 0.954586 1.196549 0.262062
v 0.460096 0.459787 -0.436090
v 0.876406 1.228803 -0.593167
v -0.315803 0.531698 -0.279915
v -0.115540 0.589821 -0.507913
v -0.271940 1.466402 -0.756862
v 1.228396 1.911766 0.458847
v -0.070646 1.996148 1.335119
v 0.490001 0.208641 -0.093953
v 1.278599 2.214883 -0.374911
v 1.339474 2.214883 -0.007508
v 1.196476 2.214883 -0.597051
v 1.025613 2.214883 -0.845232
v 1.296652 2.214883 0.305099
v 1.213015 2.214883 0.539568
v 1.154040 2.214883 0.706071
v 0.869557 2.214883 1.108606
v -1.001647 2.214883 1.150583
v 0.790020 2.214883 1.177698
v 0.144848 2.214883 1.325325
v -0.077422 2.214883 1.359006
v -0.489203 2.214883 1.307772
v 0.960287 2.214883 -0.900669
v 0.694446 2.214883 -0.986002
v -1.421892 2.214883 -0.273633
v -1.393154 2.214883 -0.498091
v -0.187755 2.214883 -1.137368
v -0.635554 2.214883 -1.085785
v -0.854537 2.214883 -1.044736
v -1.101327 2.214883 -0.919365
v -1.133694 2.214883 -0.883043
v -1.422846 2.214883 0.335618
v -1.404866 2.214883 0.530447
v -1.300882 2.214883 0.708136
v 0.078838 2.214883 -1.105064
v -1.448316 2.214883 0.078109
v 1.131352 2.295229 -0.324739
v 1.182587 2.295229 -0.014767
v 1.062235 2.295229 -0.511697
v 0.918431 2.295229 -0.720573
v 1.146546 2.295229 0.264073
v 1.076155 2.295229 0.469358
v 1.026520 2.295229 0.615142
v 0.787090 2.295229 0.953653
v 0.702662 2.295229 1.012492
v 0.131469 2.295229 1.136739
v -0.044633 2.295229 1.165086
v -0.430188 2.295229 1.121966
v -0.901070 2.295229 0.989671
v 0.863829 2.295229 -0.767233
v 0.625407 2.295229 -0.839050
v -1.266272 2.295229 -0.239499
v -1.242085 2.295229 -0.428410
v -0.137888 2.295229 -0.966446
v -0.559274 2.295229 -0.923030
v -0.782242 2.295229 -0.888483
v -0.996475 2.295229 -0.782968
v -1.023716 2.295229 -0.752397
v -1.267076 2.295229 0.293926
v -1.251942 2.295229 0.466014
v -1.164427 2.295229 0.618981
v 0.105651 2.295229 -0.939258
v -1.288512 2.295229 0.066252
vt 0.000000 0.000000
vt 0.000000 0.000000
vt 0.000000 0.000000
vt 0.000000 0.000000
vt 0.000000 0.000000
vt 0.000000 0.000000
vt 0.000000 0.000000
vt 0.000000 0.000000
vt 0.000000 0.000000
vt 0.000000 0.000000
vt 0.000000 0.000000
vt 0.000000 0.000000
vt 0.000000 0.000000
vt 0.857812 0.226104
vt 0.794789 0.195675
vt 0.850236 0.258651
vt 0.862581 0.258380
vt 0.746076 0.217260
vt 0.779572 0.256805
vt 0.795275 0.254039
vt 0.933624 0.236329
vt 0.877610 0.120397
vt 0.685206 0.206921
vt 0.615043 0.212567
vt 0.638336 0.245877
vt 0.671169 0.243813
vt 0.598418 0.144454
vt 0.568181 0.196826
vt 0.560001 0.132265
vt 0.121135 0.236191
vt 0.039207 0.176546
vt 0.045454 0.236191
vt 0.242257 0.236191
vt 0.181818 0.236191
vt 0.196829 0.262190
vt 0.229546 0.249460
vt 0.237494 0.196826
vt 0.142440 0.184096
vt 0.890888 0.260800
vt 0.941823 0.259219
vt 0.748548 0.253987
vt 0.696904 0.248437
vt 0.499999 0.236191
vt 0.483543 0.236191
vt 0.496724 0.241864
vt 0.058716 0.259161
vt 0.104829 0.248313
vt 0.246126 0.239704
vt 0.318181 0.236191
vt 0.315002 0.240034
vt 0.931817 0.196826
vt 0.000000 0.000000
vt 0.000000 0.000000
vt 0.000000 0.000000
vt 0.000000 0.000000
vt 0.196829 0.262190
vt 0.229546 0.249460
vt 0.000000 0.000000
vt 0.000000 0.000000
vt 0.000000 0.000000
vt 0.000000 0.000000
vt 0.000000 0.000000
vt 0.000000 0.000000
vt 0.000000 0.000000
vt 0.000000 0.000000
vt 0.119231 0.246186
vt 0.000000 0.000000
vt 0.000000 0.000000
vt 0.000000 0.000000
vt 0.000000 0.000000
vt 0.360961 0.648895
vt 0.365344 0.623474
vt 0.359113 0.591610
vt 0.350706 0.572344
vt 0.333215 0.550820
vt 0.327777 0.546012
vt 0.311107 0.538611
vt 0.285045 0.528285
vt 0.272178 0.525483
vt 0.241459 0.529957
vt 0.221424 0.533517
vt 0.196161 0.544390
vt 0.192847 0.547540
vt 0.166287 0.580926
vt 0.163345 0.600393
vt 0.160640 0.630522
vt 0.163248 0.650140
vt 0.165088 0.664457
vt 0.175733 0.676027
vt 0.206365 0.707207
vt 0.243730 0.720839
vt 0.265147 0.725283
vt 0.274228 0.722362
vt 0.309098 0.709558
vt 0.317240 0.704050
vt 0.346362 0.677105
vt 0.352399 0.665515
vt 0.000000 0.000000
vt 0.000000 0.000000
vt 0.000000 0.000000
vt 0.000000 0.000000
vt 0.000000 0.000000
vt 0.862581 0.258380
vt 0.890888 0.260800
vt 0.000000 0.000000
vt 0.000000 0.000000
vt 0.638336 0.245877
vt 0.671169 0.243813
vt 0.000000 0.000000
vt 0.941823 0.259219
vt 0.058716 0.259161
vt 0.104829 0.248313
vt 0.696904 0.248437
vt 0.246126 0.239704
vt 0.315002 0.240034
vt 0.000000 0.000000
vt 0.000000 0.000000
vt 0.000000 0.000000
vt 0.000000 0.000000
vt 0.000000 0.000000
vt 0.483543 0.236191
vt 0.496724 0.241864
vt 0.748548 0.253987
vt 0.779572 0.256805
vt 0.119231 0.246186
vt 0.795275 0.254039
vt 0.000000 0.000000
vt 0.000000 0.000000
vt 0.000000 0.000000
vt 0.000000 0.000000
vt 0.000000 0.000000
vt 0.850236 0.258651
vt 0.807647 0.096977
vt 0.755768 0.108104
vt 0.696253 0.112474
vt 0.652574 0.129383
vt 0.510644 0.126912
vt 0.420145 0.157461
vt 0.486901 0.180148
vt 0.479632 0.043452
vt 0.415612 0.086758
vt 0.431818 0.039365
vt 0.381701 0.126171
vt 0.343014 0.126171
vt 0.217824 0.141175
vt 0.330971 0.192789
vt 0.313723 0.078731
vt 0.295454 0.039365
vt 0.248379 0.042172
vt 0.115257 0.042172
vt 0.091949 0.118096
vt 0.070365 0.043147
vt 0.045454 0.078731
vt 0.021109 0.120898
vt 0.611276 0.043452
vt 0.639316 0.007890
vt 0.840908 0.039365
vt 0.863635 0.078731
vt 0.814427 0.006502
vt 0.396269 0.196826
vt 0.090909 0.000000
vt 0.272727 0.000000
vt 0.454545 0.000000
vt 0.522727 0.196826
vn 0.1964 -0.3388 -0.9202
vn -0.8183 -0.1736 -0.5479
vn 0.9851 0.0542 -0.1632
vn 0.1424 -0.3449 -0.9278
vn -0.9693 -0.1570 -0.1895
vn 0.1654 -0.1191 0.9790
vn 0.6937 0.0144 0.7201
vn -0.1428 -0.4971 0.8559
vn 0.9791 -0.1530 0.1338
vn 0.8772 -0.3164 -0.3612
vn 0.8348 -0.3441 -0.4297
vn -0.8254 -0.2555 0.5034
vn -0.9349 0.3478 -0.0706
vn -0.9499 -0.3009 -0.0841
vn -0.9731 -0.1674 0.1583
vn -0.2882 0.1858 0.9394
vn -0.1419 -0.1491 0.9786
vn 0.8071 0.1523 0.5704
vn 0.9411 -0.0416 0.3357
vn 0.3049 -0.0699 -0.9498
vn -0.8318 -0.0604 0.5518
vn -0.8421 -0.3275 0.4284
vn -0.8312 0.5458 -0.1064
vn -0.8067 0.2315 -0.5437
vn -0.3359 -0.5349 0.7753
vn 0.9443 -0.0352 0.3272
vn -0.4518 0.8915 -0.0334
vn 0.2229 -0.0345 0.9742
vn -0.4507 -0.0997 -0.8871
vn -0.9646 0.2458 0.0959
vn -0.1796 -0.1606 -0.9705
vn -0.9702 0.2251 0.0895
vn -0.1134 -0.1318 -0.9848
vn -0.8608 0.0729 0.5037
vn 0.9366 -0.0544 -0.3462
vn 0.8226 -0.0520 -0.5663
vn 0.6404 0.1432 -0.7546
vn 0.0000 1.0000 0.0000
vn 0.4305 0.8884 -0.1592
vn -0.3205 0.9032 -0.2856
vn -0.0450 0.9239 0.3801
vn -0.4475 0.8932 0.0433
vn 0.4554 0.8882 0.0607
vn -0.1909 0.9046 -0.3812
vn -0.1106 0.9202 0.3756
vn -0.3538 0.9027 0.2448
vn 0.4370 0.8863 0.1531
vn -0.3644 0.8982 -0.2456
vn 0.2848 0.8983 -0.3346
vn 0.4429 0.8832 0.1540
vn -0.4503 0.8919 0.0406
vn 0.1345 0.8919 -0.4317
vn 0.3725 0.8899 0.2634
vn -0.3813 0.8977 0.2208
vn -0.4480 0.8922 -0.0574
vn 0.2526 0.9118 0.3237
vn 0.0861 0.8908 -0.4461
vn 0.4574 0.8860 -0.0757
vn -0.0458 0.9067 -0.4193
vn 0.0606 0.9192 0.3892
vn 0.0513 0.8967 -0.4396
vn 0.3715 0.8925 -0.2558
vn -0.0721 0.9039 -0.4217
vn 0.0874 0.9161 0.3912
vn 0.2266 -0.6437 0.7310
vn 0.7094 -0.4859 0.5106
vn -0.7267 -0.3076 -0.6142
vn 0.8396 -0.4172 0.3479
vn 0.9154 -0.3838 0.1212
vn 0.9161 -0.3801 0.1274
vn 0.0325 -0.4559 -0.8894
vn 0.0731 -0.2374 -0.9687
vn 0.0804 -0.2719 -0.9590
vn 0.0625 -0.2562 -0.9646
vn 0.1184 -0.2833 -0.9517
vn -0.6099 -0.5579 -0.5628
vn -0.6159 -0.5470 -0.5670
vn -0.4747 -0.6579 -0.5847
vn -0.6058 -0.6251 -0.4921
vn -0.6602 -0.7328 -0.1647
vn -0.8516 -0.5216 0.0526
vn -0.7520 -0.5649 -0.3398
vn -0.8137 -0.4133 0.4088
vn -0.5907 -0.6890 0.4200
vn -0.6383 -0.3432 0.6891
vn -0.3899 -0.5723 0.7214
vn 0.7908 -0.5002 -0.3528
vn 0.8856 -0.4532 0.1018
vn 0.7742 -0.4760 -0.4171
vn 0.8011 -0.4970 0.3337
vn 0.1587 -0.5190 0.8399
vn 0.1145 -0.2950 0.9486
vn -0.0309 -0.5628 0.8260
vn 0.0364 -0.5537 0.8319
vn 0.4357 -0.5149 0.7383
vn 0.2193 -0.6291 0.7458
vn -0.6461 -0.5264 -0.5527
vn 0.0763 -0.5793 -0.8115
vn 0.2041 -0.5265 -0.8253
vn -0.0137 -0.5242 -0.8515
vn -0.2461 -0.8653 -0.4367
vn -0.1094 -0.8058 -0.5820
vn 0.8539 -0.4497 0.2622
vn 0.2003 -0.3198 -0.9261
vn -0.9084 -0.4058 -0.1003
vn -0.1244 -0.4394 -0.8897
vn 0.7125 -0.2937 -0.6373
vn -0.7203 0.2631 -0.6419
usemtl green
s off
f 14/1/1 61/2/1 50/3/1 20/4/1
f 5/5/2 4/6/2 19/7/2
f 15/8/3 36/9/3 37/10/3
f 3/11/4 53/12/4 61/2/4 14/1/4
f 4/6/5 5/5/5 2/13/5
f 34/14/6 7/15/6 46/16/6 47/17/6
f 7/15/7 21/18/7 43/19/7 45/20/7
f 18/21/8 23/22/8 34/14/8
f 33/23/9 15/24/9 37/25/9 40/26/9
f 15/24/10 26/27/10 1/28/10
f 26/27/11 29/29/11 1/28/11
f 16/30/12 6/31/12 18/32/12
f 4/33/13 2/34/13 62/35/13 51/36/13
f 5/37/14 17/38/14 2/34/14
f 17/38/15 16/30/15 2/34/15
f 18/21/16 48/39/16 44/40/16
f 18/21/17 34/14/17 47/17/17 48/39/17
f 21/18/18 42/41/18 43/19/18
f 33/23/19 40/26/19 41/42/19
f 20/43/20 50/44/20 49/45/20
f 16/30/21 18/32/21 44/46/21 60/47/21
f 17/38/22 6/31/22 16/30/22
f 4/33/23 51/36/23 52/48/23
f 19/49/24 4/33/24 52/48/24 57/50/24
f 23/22/25 18/21/25 6/51/25
f 41/52/26 42/53/26 21/54/26 33/55/26
f 51/36/27 62/35/27 89/56/27 78/57/27
f 45/20/28 46/16/28 7/15/28
f 56/58/29 55/59/29 13/60/29 19/7/29
f 58/61/30 62/62/30 2/13/30 16/63/30
f 55/59/31 54/64/31 3/11/31 13/60/31
f 59/65/32 58/61/32 16/63/32
f 54/64/33 53/12/33 3/11/33
f 60/47/34 59/66/34 16/30/34
f 38/67/35 36/9/35 15/8/35 1/68/35
f 39/69/36 38/67/36 1/68/36 20/4/36
f 49/70/37 39/69/37 20/4/37
f 67/71/38 64/72/38 63/73/38 65/74/38 66/75/38 76/76/38 77/77/38 88/78/38 80/79/38 81/80/38 82/81/38 83/82/38 84/83/38 79/84/38 78/85/38 89/86/38 85/87/38 86/88/38 87/89/38 75/90/38 74/91/38 73/92/38 72/93/38 71/94/38 70/95/38 69/96/38 68/97/38
f 36/9/39 38/67/39 65/98/39 63/99/39
f 56/58/40 57/100/40 84/101/40 83/102/40
f 48/39/41 47/17/41 73/103/41 74/104/41
f 62/62/42 58/61/42 85/105/42 89/106/42
f 40/26/43 37/25/43 64/107/43 67/108/43
f 55/59/44 56/58/44 83/102/44 82/109/44
f 44/40/45 48/39/45 74/104/45 75/110/45
f 60/47/46 44/46/46 75/111/46 87/112/46
f 41/42/47 40/26/47 67/108/47 68/113/47
f 57/50/48 52/48/48 79/114/48 84/115/48
f 39/69/49 49/70/49 76/116/49 66/117/49
f 42/53/50 41/52/50 68/118/50 69/119/50
f 58/61/51 59/65/51 86/120/51 85/105/51
f 49/45/52 50/44/52 77/121/52 76/122/52
f 43/19/53 42/41/53 69/123/53 70/124/53
f 59/66/54 60/47/54 87/112/54 86/125/54
f 52/48/55 51/36/55 78/57/55 79/114/55
f 45/20/56 43/19/56 70/124/56 71/126/56
f 50/3/57 61/2/57 88/127/57 77/128/57
f 37/10/58 36/9/58 63/99/58 64/129/58
f 53/12/59 54/64/59 81/130/59 80/131/59
f 47/17/60 46/16/60 72/132/60 73/103/60
f 61/2/61 53/12/61 80/131/61 88/127/61
f 38/67/62 39/69/62 66/117/62 65/98/62
f 54/64/63 55/59/63 82/109/63 81/130/63
f 46/16/64 45/20/64 71/126/64 72/132/64
usemtl ground
f 12/133/65 25/134/65 7/15/65
f 25/134/66 21/18/66 7/15/66
f 19/7/67 13/60/67 5/5/67
f 25/135/68 27/136/68 33/23/68
f 33/23/69 27/136/69 15/24/69
f 27/136/70 26/27/70 15/24/70
f 29/137/71 32/138/71 14/139/71
f 28/140/72 8/141/72 29/137/72
f 29/137/73 8/141/73 32/138/73
f 28/140/74 31/142/74 8/141/74
f 8/141/75 22/143/75 32/138/75
f 22/144/76 9/145/76 13/146/76
f 8/147/77 9/145/77 22/144/77
f 31/148/78 30/149/78 8/147/78
f 8/147/79 30/149/79 9/145/79
f 30/150/80 10/151/80 9/145/80
f 9/145/81 10/151/81 17/38/81
f 30/150/82 11/152/82 10/151/82
f 10/151/83 6/31/83 17/38/83
f 11/152/84 24/153/84 10/151/84
f 24/153/85 23/154/85 10/151/85
f 10/151/86 23/154/86 6/31/86
f 26/27/87 28/155/87 29/29/87
f 27/136/88 35/156/88 26/27/88
f 26/27/89 35/156/89 28/155/89
f 27/136/90 25/135/90 35/156/90
f 11/157/91 12/133/91 24/158/91
f 24/158/92 12/133/92 23/22/92
f 23/22/93 12/133/93 34/14/93
f 12/133/94 7/15/94 34/14/94
f 11/157/95 35/159/95 12/133/95
f 35/159/96 25/134/96 12/133/96
f 13/146/97 9/145/97 5/37/97
f 14/139/98 32/138/98 3/160/98
f 32/138/99 22/144/99 3/160/99
f 35/161/100 11/152/100 30/150/100
f 35/162/101 30/149/101 31/148/101
f 35/163/102 31/142/102 28/140/102
f 21/18/103 25/135/103 33/23/103
f 29/29/104 14/139/104 20/164/104
f 9/145/105 17/38/105 5/37/105
f 22/144/106 13/146/106 3/160/106
f 29/29/107 20/164/107 1/28/107
f 57/100/108 56/58/108 19/7/108
